<?xml version="1.0" encoding="utf-8"?>
<!-- Generator: Adobe Illustrator 25.4.1, SVG Export Plug-In . SVG Version: 6.00 Build 0)  -->
<svg version="1.1" id="Layer_1" xmlns="http://www.w3.org/2000/svg" xmlns:xlink="http://www.w3.org/1999/xlink" x="0px" y="0px"
	 width="735.2px" height="172.8px" viewBox="0 0 735.2 172.8" style="enable-background:new 0 0 735.2 172.8;" xml:space="preserve"
	>
<style type="text/css">
	.st0{fill:#78853C;}
	.st1{fill:#BABF99;}
</style>
<g>
	
		<image style="overflow:visible;opacity:0.4;" width="736" height="148" xlink:href="765633FC.png"  transform="matrix(1 0 0 1 5.9463 4.7227)">
	</image>
	<g>
		<g>
			<polyline class="st0" points="306.3,133.7 276.3,100.1 276.1,133.7 264.5,133.7 264.5,83.7 276.1,83.7 306.3,117.1 306.3,83.7 
				317.9,83.7 317.9,133.7 306.3,133.7 			"/>
			<path class="st0" d="M30.1,133.7c-4.6,0-8.4-1.4-11.6-4.4s-4.8-6.8-4.8-11.4V99.5c0-4.6,1.6-8.2,4.8-11.2s7-4.6,11.6-4.6h38.6
				v11.6H29.9c-3.2,0-4.6,1.4-4.6,4.2v18.4c0,2.8,1.6,4.2,4.6,4.2h27v-7.6H41.1v-11.6h27.6v30.8H30.1"/>
			<polyline class="st0" points="156.1,95.3 156.1,102.9 195.1,102.9 195.1,114.5 156.1,114.5 156.1,122.1 197.7,122.1 197.7,133.7 
				144.5,133.7 144.5,83.7 197.9,83.7 197.9,95.3 156.1,95.3 			"/>
			<polyline class="st0" points="216.1,95.3 216.1,102.9 255.1,102.9 255.1,114.5 216.1,114.5 216.1,122.1 257.7,122.1 257.7,133.7 
				204.5,133.7 204.5,83.7 257.7,83.7 257.7,95.3 216.1,95.3 			"/>
			<path class="st1" d="M380.7,129.1c-2.8,3.2-6.2,4.6-10.2,4.6h-43.2v-11.6h43.2c1.6,0,2.4-1.2,2.4-3.8c0-2.6-0.8-3.8-2.4-3.8
				h-31.4c-4.2,0-7.6-1.6-10.2-4.6c-2.6-2.8-3.8-6.4-3.8-10.8c0-4.2,1.4-7.8,4-11c2.6-3,6-4.6,10.2-4.6h43.2v11.6h-43.2
				c-1.6,0-2.4,1.2-2.4,3.8c0,2.4,0.8,3.8,2.4,3.8h31.4c4.2,0,7.6,1.6,10.2,4.6s3.8,6.6,3.8,10.8
				C384.5,122.5,383.1,126.1,380.7,129.1"/>
			<path class="st1" d="M450.1,112.1c-2.6,3.6-6,5.4-10.4,5.4h-36.8v16.2h-11.6v-50h48.4c4.4,0,7.8,1.8,10.4,5.4
				c2.4,3.2,3.6,7.2,3.6,11.6S452.5,108.9,450.1,112.1 M439.5,95.3h-36.8v10.4h36.8c1.6,0,2.6-1.8,2.6-5.2
				C442.1,97.1,441.3,95.3,439.5,95.3z"/>
			<path class="st1" d="M509.9,133.7v-16h-41.2v-11.6h41v-7c0-2.6-0.8-3.8-2.6-3.8h-33c-1.6,0-2.4,1.2-2.4,3.8v34.6h-11.6V99.3
				c0-4.2,1.2-8,3.8-10.8c2.6-3,6-4.6,10.2-4.6h33c4.2,0,7.6,1.6,10.2,4.6c2.6,3,4,6.6,4,10.8v34.6h-11.4"/>
			<path class="st1" d="M544.7,133.7c-4.6,0-8.4-1.4-11.6-4.4c-3.2-3-4.8-6.8-4.8-11.4V99.5c0-4.6,1.6-8.2,4.8-11.2s7-4.6,11.6-4.6
				h38.6v11.6h-38.6c-3.2,0-4.6,1.4-4.6,4.2v18.4c0,2.8,1.6,4.2,4.6,4.2h38.6v11.6L544.7,133.7"/>
			<polyline class="st1" points="601.7,95.3 601.7,102.9 640.7,102.9 640.7,114.5 601.7,114.5 601.7,122.1 643.3,122.1 643.3,133.7 
				590.1,133.7 590.1,83.7 643.5,83.7 643.5,95.3 601.7,95.3 			"/>
			<path class="st0" d="M122.5,133.7h16l-14.6-16.4l0,0c4.4,0,8-1.8,10.6-5.2c2.4-3.2,3.6-7,3.6-11.6s-1.2-8.4-3.6-11.6
				c-2.6-3.4-6.2-5.2-10.6-5.2H75.3v50h11.6v-16.4h21L122.5,133.7 M86.9,105.7V95.3h36.2c2.2,0,3.2,1.8,3.2,5.2c0,3.4-1,5.2-3.2,5.2
				C123.1,105.7,86.9,105.7,86.9,105.7z"/>
			<path class="st0" d="M679.5,12.7c-21,0-28.6,17.2-28.6,28.6v14.2h46.2V41.7c0,0-24.6,0-32.6,0v-0.4c0-2.4,1-15,15-15
				c0,0,20.4,0,29.4,0c0,9,0,29.4,0,29.4c0,2.4-1,15-15,15h-14.6v13.8h14.6c21,0,28.6-17.2,28.6-28.6V12.7H679.5"/>
		</g>
	</g>
</g>
<g>
	<g>
		<path d="M24.6,149.7h2.2v11h-2.2V149.7z M25.7,149.7h9v1.5h-9V149.7z M25.7,154.5h7.8v1.5h-7.8V154.5z M25.7,159.2h9v1.5h-9V159.2
			z"/>
		<path d="M37.8,149.7h2l7.6,8.5l-0.3,0.2v-8.7h2.2v11h-2l-7.6-8.4l0.3-0.2v8.6h-2.2V149.7z"/>
		<path d="M51.6,149.7h2.4l3.7,8.6l3.7-8.6h2.4l-5.1,11h-2.1L51.6,149.7z"/>
		<path d="M68.3,160.7h-2.2v-11h2.2V160.7z"/>
		<path d="M72.1,149.7h2.2v11h-2.2V149.7z M73.1,154.6h5.3c0.4,0,0.8-0.1,1.1-0.2s0.6-0.3,0.7-0.6s0.3-0.6,0.3-0.9s-0.1-0.6-0.3-0.9
			c-0.2-0.3-0.4-0.5-0.7-0.6c-0.3-0.1-0.7-0.2-1.1-0.2h-5.3v-1.5h5.2c0.9,0,1.7,0.1,2.4,0.4s1.2,0.6,1.6,1.1c0.4,0.5,0.6,1,0.6,1.7
			s-0.2,1.2-0.6,1.7c-0.4,0.5-0.9,0.9-1.6,1.1c-0.7,0.3-1.5,0.4-2.4,0.4h-5.2V154.6z M77.4,155.7l2.2-0.3l4,5.4h-2.6L77.4,155.7z"/>
		<path d="M88.8,160.3c-0.8-0.3-1.5-0.8-1.9-1.4c-0.5-0.6-0.7-1.3-0.7-2.1v-3.1c0-0.8,0.2-1.5,0.7-2.1c0.5-0.6,1.1-1.1,1.9-1.4
			c0.8-0.3,1.8-0.5,2.9-0.5c1.1,0,2,0.2,2.9,0.5s1.5,0.8,1.9,1.4c0.5,0.6,0.7,1.3,0.7,2.1v3.1c0,0.8-0.2,1.5-0.7,2.1
			c-0.5,0.6-1.1,1.1-1.9,1.4s-1.8,0.5-2.9,0.5C90.6,160.8,89.6,160.6,88.8,160.3z M93.4,159c0.5-0.2,0.9-0.5,1.1-0.9
			s0.4-0.8,0.4-1.3v-3.2c0-0.5-0.1-0.9-0.4-1.3s-0.6-0.7-1.1-0.9c-0.5-0.2-1.1-0.3-1.7-0.3c-0.6,0-1.2,0.1-1.7,0.3s-0.9,0.5-1.1,0.9
			s-0.4,0.8-0.4,1.3v3.2c0,0.5,0.1,0.9,0.4,1.3s0.6,0.7,1.1,0.9s1.1,0.3,1.7,0.3C92.3,159.3,92.9,159.2,93.4,159z"/>
		<path d="M100.7,149.7h2l7.6,8.5l-0.3,0.2v-8.7h2.2v11h-2l-7.6-8.4l0.3-0.2v8.6h-2.2V149.7z"/>
		<path d="M127.3,149.7h2.1v11h-2.1v-8.3l0.1,0.5l-3.8,6.2H122l-3.8-6.1l0.1-0.6v8.3h-2.1v-11h2.1l4.6,7.3L127.3,149.7z"/>
		<path d="M133.2,149.7h2.2v11h-2.2V149.7z M134.3,149.7h9v1.5h-9V149.7z M134.3,154.5h7.8v1.5h-7.8V154.5z M134.3,159.2h9v1.5h-9
			V159.2z"/>
		<path d="M146.4,149.7h2l7.6,8.5l-0.3,0.2v-8.7h2.2v11h-2l-7.6-8.4l0.3-0.2v8.6h-2.2V149.7z"/>
		<path d="M159.7,149.7h11v1.5h-11V149.7z M164.1,150.6h2.2v10.1h-2.2V150.6z"/>
		<path d="M176.6,149.7h1.9l5.8,11h-2.4l-4.3-8.9l-4.3,8.9h-2.4L176.6,149.7z M173.5,156.8h8.2v1.5h-8.2V156.8z"/>
		<path d="M186.6,149.7h2.2v11h-2.2V149.7z M187.7,159.2h8.9v1.5h-8.9V159.2z"/>
		<path d="M199.3,149.7h2.2v11h-2.2V149.7z M200.3,159.2h8.9v1.5h-8.9V159.2z"/>
		<path d="M216.6,156.2v4.5h-2.2v-4.5l-4.8-6.5h2.4l3.4,5l3.4-5h2.4L216.6,156.2z"/>
		<path d="M231.4,160.7c-0.7-0.1-1.3-0.3-1.9-0.5c-0.6-0.2-1.1-0.5-1.6-0.8l1.4-1.2c0.6,0.4,1.2,0.6,2,0.8s1.5,0.3,2.3,0.3
			c1.1,0,2-0.1,2.6-0.4s0.9-0.7,0.9-1.3v0c0-0.4-0.1-0.7-0.4-0.9c-0.3-0.2-0.6-0.4-1.1-0.5c-0.4-0.1-1-0.2-1.7-0.3c0,0,0,0-0.1,0
			c0,0,0,0-0.1,0l-0.2,0c-1-0.1-1.9-0.3-2.6-0.4s-1.2-0.5-1.7-0.9c-0.5-0.4-0.7-1-0.7-1.8v0c0-0.7,0.2-1.3,0.7-1.7
			c0.4-0.5,1.1-0.9,1.9-1.1c0.8-0.3,1.8-0.4,3-0.4c0.6,0,1.1,0,1.6,0.1c0.5,0.1,1.1,0.2,1.6,0.4c0.5,0.2,1,0.4,1.6,0.6l-1.2,1.2
			c-0.6-0.3-1.2-0.5-1.8-0.7s-1.2-0.2-1.8-0.2c-1.1,0-1.9,0.2-2.5,0.5c-0.6,0.3-0.9,0.7-0.9,1.3v0c0,0.4,0.2,0.7,0.5,0.9
			c0.3,0.2,0.7,0.4,1.1,0.5s1.1,0.2,1.9,0.3c0,0,0.1,0,0.1,0c0,0,0.1,0,0.1,0c0,0,0.1,0,0.1,0s0.1,0,0.1,0c0.9,0.1,1.7,0.3,2.4,0.5
			c0.6,0.2,1.2,0.5,1.6,0.9c0.4,0.4,0.6,1,0.6,1.7v0c0,0.7-0.2,1.2-0.7,1.7c-0.5,0.5-1.1,0.8-2,1.1s-1.9,0.4-3.1,0.4
			C232.8,160.8,232.1,160.8,231.4,160.7z"/>
		<path d="M244.7,160.3c-0.8-0.3-1.4-0.8-1.9-1.4c-0.4-0.6-0.6-1.4-0.6-2.2v-7h2.2v7.1c0,0.8,0.3,1.4,0.9,1.9
			c0.6,0.4,1.4,0.7,2.4,0.7c1.1,0,1.9-0.2,2.4-0.7s0.9-1.1,0.9-1.9v-7.1h2.2v7c0,0.9-0.2,1.6-0.6,2.2c-0.4,0.6-1.1,1.1-1.9,1.4
			c-0.8,0.3-1.8,0.5-3,0.5C246.5,160.8,245.5,160.6,244.7,160.3z"/>
		<path d="M259.4,160.7c-0.7-0.1-1.3-0.3-1.9-0.5c-0.6-0.2-1.1-0.5-1.6-0.8l1.4-1.2c0.6,0.4,1.2,0.6,2,0.8s1.5,0.3,2.3,0.3
			c1.1,0,2-0.1,2.6-0.4s0.9-0.7,0.9-1.3v0c0-0.4-0.1-0.7-0.4-0.9c-0.3-0.2-0.6-0.4-1.1-0.5c-0.4-0.1-1-0.2-1.7-0.3c0,0,0,0-0.1,0
			c0,0,0,0-0.1,0l-0.2,0c-1-0.1-1.9-0.3-2.6-0.4s-1.2-0.5-1.7-0.9c-0.5-0.4-0.7-1-0.7-1.8v0c0-0.7,0.2-1.3,0.7-1.7
			c0.4-0.5,1.1-0.9,1.9-1.1c0.8-0.3,1.8-0.4,3-0.4c0.6,0,1.1,0,1.6,0.1c0.5,0.1,1.1,0.2,1.6,0.4c0.5,0.2,1,0.4,1.6,0.6l-1.2,1.2
			c-0.6-0.3-1.2-0.5-1.8-0.7s-1.2-0.2-1.8-0.2c-1.1,0-1.9,0.2-2.5,0.5c-0.6,0.3-0.9,0.7-0.9,1.3v0c0,0.4,0.2,0.7,0.5,0.9
			c0.3,0.2,0.7,0.4,1.1,0.5s1.1,0.2,1.9,0.3c0,0,0.1,0,0.1,0c0,0,0.1,0,0.1,0c0,0,0.1,0,0.1,0s0.1,0,0.1,0c0.9,0.1,1.7,0.3,2.4,0.5
			c0.6,0.2,1.2,0.5,1.6,0.9c0.4,0.4,0.6,1,0.6,1.7v0c0,0.7-0.2,1.2-0.7,1.7c-0.5,0.5-1.1,0.8-2,1.1s-1.9,0.4-3.1,0.4
			C260.7,160.8,260,160.8,259.4,160.7z"/>
		<path d="M268.2,149.7h11v1.5h-11V149.7z M272.6,150.6h2.2v10.1h-2.2V150.6z"/>
		<path d="M285.2,149.7h1.9l5.8,11h-2.4l-4.3-8.9l-4.3,8.9h-2.4L285.2,149.7z M282.1,156.8h8.2v1.5h-8.2V156.8z"/>
		<path d="M297.4,160.7h-2.2v-11h2.2V160.7z"/>
		<path d="M301.2,149.7h2l7.6,8.5l-0.3,0.2v-8.7h2.2v11h-2l-7.6-8.4l0.3-0.2v8.6h-2.2V149.7z"/>
		<path d="M320.9,149.7h1.9l5.8,11h-2.4l-4.3-8.9l-4.3,8.9h-2.4L320.9,149.7z M317.8,156.8h8.2v1.5h-8.2V156.8z"/>
		<path d="M330.9,149.7h2.2v11h-2.2V149.7z M332.2,159.3h4.2c1.1,0,1.9-0.1,2.4-0.4c0.5-0.3,0.8-0.7,0.8-1.3v0c0-0.4-0.1-0.7-0.3-1
			c-0.2-0.3-0.5-0.5-0.9-0.6c-0.4-0.1-0.9-0.2-1.5-0.2h-4.8v-1.4h4.8c0.8,0,1.4-0.1,1.8-0.4c0.4-0.3,0.6-0.7,0.6-1.2
			c0-0.6-0.2-1-0.7-1.2s-1.1-0.4-2.1-0.4h-4.5v-1.4h4.9c1,0,1.9,0.1,2.5,0.4c0.7,0.2,1.2,0.6,1.5,1c0.3,0.4,0.5,1,0.5,1.6
			c0,0.4-0.1,0.7-0.3,1.1c-0.2,0.3-0.5,0.6-1,0.8c-0.4,0.2-1,0.4-1.6,0.5c0.6,0.1,1.2,0.2,1.6,0.5c0.5,0.2,0.8,0.6,1.1,0.9
			c0.2,0.4,0.4,0.8,0.4,1.2v0c0,0.6-0.2,1.1-0.6,1.6c-0.4,0.5-0.9,0.8-1.6,1.1c-0.7,0.2-1.5,0.4-2.4,0.4h-5V159.3z"/>
		<path d="M345.1,149.7h2.2v11h-2.2V149.7z M346.2,159.2h8.9v1.5h-8.9V159.2z"/>
		<path d="M357.7,149.7h2.2v11h-2.2V149.7z M358.8,149.7h9v1.5h-9V149.7z M358.8,154.5h7.8v1.5h-7.8V154.5z M358.8,159.2h9v1.5h-9
			V159.2z"/>
		<path d="M376.8,149.7h2.2v11h-2.2V149.7z M378.3,159.2h3.5c1.2,0,2-0.2,2.7-0.6c0.6-0.4,1-1,1-1.8v-3.2c0-0.8-0.3-1.4-1-1.8
			c-0.6-0.4-1.5-0.6-2.7-0.6h-3.5v-1.5h3.5c1.3,0,2.3,0.2,3.2,0.5c0.9,0.3,1.6,0.8,2,1.3s0.7,1.3,0.7,2.1v3.1c0,0.8-0.2,1.5-0.7,2.1
			s-1.1,1-2,1.3c-0.9,0.3-2,0.5-3.2,0.5h-3.5V159.2z"/>
		<path d="M391.2,149.7h2.2v11h-2.2V149.7z M392.3,149.7h9v1.5h-9V149.7z M392.3,154.5h7.8v1.5h-7.8V154.5z M392.3,159.2h9v1.5h-9
			V159.2z"/>
		<path d="M406.9,160.7c-0.7-0.1-1.3-0.3-1.9-0.5c-0.6-0.2-1.1-0.5-1.6-0.8l1.4-1.2c0.6,0.4,1.2,0.6,2,0.8c0.7,0.2,1.5,0.3,2.3,0.3
			c1.1,0,2-0.1,2.6-0.4s0.9-0.7,0.9-1.3v0c0-0.4-0.1-0.7-0.4-0.9c-0.3-0.2-0.6-0.4-1.1-0.5c-0.4-0.1-1-0.2-1.7-0.3c0,0,0,0-0.1,0
			s0,0-0.1,0l-0.2,0c-1-0.1-1.9-0.3-2.6-0.4s-1.2-0.5-1.7-0.9c-0.5-0.4-0.7-1-0.7-1.8v0c0-0.7,0.2-1.3,0.7-1.7
			c0.4-0.5,1.1-0.9,1.9-1.1c0.8-0.3,1.8-0.4,3-0.4c0.6,0,1.1,0,1.6,0.1c0.5,0.1,1.1,0.2,1.6,0.4c0.5,0.2,1,0.4,1.6,0.6l-1.2,1.2
			c-0.6-0.3-1.2-0.5-1.8-0.7c-0.6-0.2-1.2-0.2-1.8-0.2c-1.1,0-1.9,0.2-2.5,0.5c-0.6,0.3-0.9,0.7-0.9,1.3v0c0,0.4,0.2,0.7,0.5,0.9
			c0.3,0.2,0.7,0.4,1.1,0.5s1.1,0.2,1.9,0.3c0,0,0.1,0,0.1,0c0,0,0.1,0,0.1,0c0,0,0.1,0,0.1,0s0.1,0,0.1,0c0.9,0.1,1.7,0.3,2.4,0.5
			c0.6,0.2,1.2,0.5,1.6,0.9c0.4,0.4,0.6,1,0.6,1.7v0c0,0.7-0.2,1.2-0.7,1.7s-1.1,0.8-2,1.1c-0.9,0.2-1.9,0.4-3.1,0.4
			C408.3,160.8,407.6,160.8,406.9,160.7z"/>
		<path d="M420.1,160.7h-2.2v-11h2.2V160.7z"/>
		<path d="M434.6,154.8v1.9c0,0.8-0.2,1.5-0.7,2.2c-0.5,0.6-1.1,1.1-1.9,1.4c-0.8,0.3-1.8,0.5-2.9,0.5c-1.1,0-2.1-0.2-2.9-0.5
			c-0.8-0.3-1.5-0.8-1.9-1.4c-0.5-0.6-0.7-1.3-0.7-2v-3.3c0-0.8,0.2-1.5,0.7-2.2s1.1-1.1,1.9-1.4c0.8-0.3,1.8-0.5,2.9-0.5
			c0.9,0,1.7,0.1,2.5,0.4c0.8,0.3,1.4,0.7,1.9,1.1c0.5,0.5,0.9,1.1,1,1.7h-2.4c-0.1-0.4-0.3-0.7-0.7-1c-0.3-0.3-0.7-0.5-1.1-0.6
			c-0.4-0.1-0.8-0.2-1.3-0.2c-0.6,0-1.2,0.1-1.7,0.3c-0.5,0.2-0.9,0.5-1.1,0.9c-0.3,0.4-0.4,0.8-0.4,1.4v3.3c0,0.5,0.1,0.9,0.4,1.2
			c0.3,0.4,0.7,0.6,1.2,0.8s1.1,0.3,1.7,0.3c0.6,0,1.2-0.1,1.7-0.3c0.5-0.2,0.9-0.5,1.1-0.9c0.3-0.4,0.4-0.9,0.4-1.4v-0.5h-3.2v-1.5
			H434.6z"/>
		<path d="M438.2,149.7h2l7.6,8.5l-0.3,0.2v-8.7h2.2v11h-2l-7.6-8.4l0.3-0.2v8.6h-2.2V149.7z"/>
		<path d="M463.8,149.7h1.9l5.8,11H469l-4.3-8.9l-4.3,8.9H458L463.8,149.7z M460.7,156.8h8.2v1.5h-8.2V156.8z"/>
		<path d="M473.8,149.7h2l7.6,8.5l-0.3,0.2v-8.7h2.2v11h-2l-7.6-8.4l0.3-0.2v8.6h-2.2V149.7z"/>
		<path d="M489.2,149.7h2.2v11h-2.2V149.7z M490.6,159.2h3.5c1.2,0,2-0.2,2.7-0.6c0.6-0.4,1-1,1-1.8v-3.2c0-0.8-0.3-1.4-1-1.8
			c-0.6-0.4-1.5-0.6-2.7-0.6h-3.5v-1.5h3.5c1.3,0,2.3,0.2,3.2,0.5c0.9,0.3,1.6,0.8,2,1.3s0.7,1.3,0.7,2.1v3.1c0,0.8-0.2,1.5-0.7,2.1
			s-1.1,1-2,1.3c-0.9,0.3-2,0.5-3.2,0.5h-3.5V159.2z"/>
		<path d="M509.5,149.7h2.2v11h-2.2V149.7z M510.6,149.7h8.8v1.5h-8.8V149.7z M510.6,154.6h7.6v1.5h-7.6V154.6z"/>
		<path d="M526.1,149.7h1.9l5.8,11h-2.4l-4.3-8.9l-4.3,8.9h-2.4L526.1,149.7z M523,156.8h8.2v1.5H523V156.8z"/>
		<path d="M536.1,149.7h2.2v11h-2.2V149.7z M537.3,159.3h4.2c1.1,0,1.9-0.1,2.4-0.4c0.5-0.3,0.8-0.7,0.8-1.3v0c0-0.4-0.1-0.7-0.3-1
			c-0.2-0.3-0.5-0.5-0.9-0.6c-0.4-0.1-0.9-0.2-1.5-0.2h-4.8v-1.4h4.8c0.8,0,1.4-0.1,1.8-0.4c0.4-0.3,0.6-0.7,0.6-1.2
			c0-0.6-0.2-1-0.7-1.2s-1.1-0.4-2.1-0.4h-4.5v-1.4h4.9c1,0,1.9,0.1,2.5,0.4c0.7,0.2,1.2,0.6,1.5,1c0.3,0.4,0.5,1,0.5,1.6
			c0,0.4-0.1,0.7-0.3,1.1c-0.2,0.3-0.5,0.6-1,0.8c-0.4,0.2-1,0.4-1.6,0.5c0.6,0.1,1.2,0.2,1.6,0.5s0.8,0.6,1.1,0.9
			c0.2,0.4,0.4,0.8,0.4,1.2v0c0,0.6-0.2,1.1-0.6,1.6c-0.4,0.5-0.9,0.8-1.6,1.1c-0.7,0.2-1.5,0.4-2.4,0.4h-5V159.3z"/>
		<path d="M550.3,149.7h2.2v11h-2.2V149.7z M551.2,154.6h5.3c0.4,0,0.8-0.1,1.1-0.2s0.6-0.3,0.7-0.6c0.2-0.3,0.3-0.6,0.3-0.9
			s-0.1-0.6-0.3-0.9c-0.2-0.3-0.4-0.5-0.7-0.6c-0.3-0.1-0.7-0.2-1.1-0.2h-5.3v-1.5h5.2c0.9,0,1.7,0.1,2.4,0.4
			c0.7,0.3,1.2,0.6,1.6,1.1c0.4,0.5,0.6,1,0.6,1.7s-0.2,1.2-0.6,1.7s-0.9,0.9-1.6,1.1c-0.7,0.3-1.5,0.4-2.4,0.4h-5.2V154.6z
			 M555.5,155.7l2.2-0.3l4,5.4H559L555.5,155.7z"/>
		<path d="M566.8,160.7h-2.2v-11h2.2V160.7z"/>
		<path d="M572.9,160.3c-0.8-0.3-1.5-0.8-1.9-1.4s-0.7-1.3-0.7-2.2v-3c0-0.8,0.2-1.5,0.7-2.2s1.1-1.1,1.9-1.4
			c0.8-0.3,1.8-0.5,2.9-0.5c0.9,0,1.7,0.1,2.5,0.4s1.4,0.7,1.9,1.1c0.5,0.5,0.8,1.1,1,1.7h-2.2c-0.1-0.3-0.4-0.7-0.7-0.9
			c-0.3-0.3-0.7-0.5-1.1-0.6s-0.9-0.2-1.3-0.2c-0.6,0-1.2,0.1-1.7,0.3c-0.5,0.2-0.9,0.5-1.1,0.9c-0.3,0.4-0.4,0.8-0.4,1.4v3
			c0,0.5,0.1,1,0.4,1.4c0.3,0.4,0.6,0.7,1.1,0.9c0.5,0.2,1,0.3,1.7,0.3c0.5,0,0.9-0.1,1.3-0.2c0.4-0.1,0.8-0.3,1.1-0.6
			c0.3-0.3,0.5-0.6,0.7-1h2.2c-0.2,0.7-0.5,1.2-1,1.7c-0.5,0.5-1.1,0.9-1.9,1.1s-1.6,0.4-2.5,0.4
			C574.7,160.8,573.7,160.6,572.9,160.3z"/>
		<path d="M588.5,149.7h1.9l5.8,11h-2.4l-4.3-8.9l-4.3,8.9h-2.4L588.5,149.7z M585.4,156.8h8.2v1.5h-8.2V156.8z"/>
		<path d="M596.4,149.7h11v1.5h-11V149.7z M600.8,150.6h2.2v10.1h-2.2V150.6z"/>
		<path d="M611.3,160.7h-2.2v-11h2.2V160.7z"/>
		<path d="M617.5,160.3c-0.8-0.3-1.5-0.8-1.9-1.4c-0.5-0.6-0.7-1.3-0.7-2.1v-3.1c0-0.8,0.2-1.5,0.7-2.1c0.5-0.6,1.1-1.1,1.9-1.4
			c0.8-0.3,1.8-0.5,2.9-0.5c1.1,0,2,0.2,2.9,0.5s1.5,0.8,1.9,1.4c0.5,0.6,0.7,1.3,0.7,2.1v3.1c0,0.8-0.2,1.5-0.7,2.1
			c-0.5,0.6-1.1,1.1-1.9,1.4s-1.8,0.5-2.9,0.5C619.2,160.8,618.3,160.6,617.5,160.3z M622,159c0.5-0.2,0.9-0.5,1.1-0.9
			s0.4-0.8,0.4-1.3v-3.2c0-0.5-0.1-0.9-0.4-1.3s-0.6-0.7-1.1-0.9c-0.5-0.2-1.1-0.3-1.7-0.3s-1.2,0.1-1.7,0.3s-0.9,0.5-1.1,0.9
			s-0.4,0.8-0.4,1.3v3.2c0,0.5,0.1,0.9,0.4,1.3s0.6,0.7,1.1,0.9s1.1,0.3,1.7,0.3S621.5,159.2,622,159z"/>
		<path d="M629.4,149.7h2l7.6,8.5l-0.3,0.2v-8.7h2.2v11h-2l-7.6-8.4l0.3-0.2v8.6h-2.2V149.7z"/>
	</g>
</g>
</svg>
